<svg xmlns="http://www.w3.org/2000/svg" style="display: none;">
  <symbol id="icon-book" viewBox="0 0 24 24">
    <rect x="4" y="2" width="16" height="20" rx="2" ry="2"></rect>
    <rect x="2" y="2" width="2" height="20"></rect>
    <line x1="8" y1="6" x2="16" y2="6"></line>
    <line x1="8" y1="10" x2="16" y2="10"></line>
    <line x1="8" y1="14" x2="16" y2="14"></line>
  </symbol>
  
  <symbol id="icon-document" viewBox="0 0 24 24">
    <path d="M14 2H6a2 2 0 0 0-2 2v16a2 2 0 0 0 2 2h12a2 2 0 0 0 2-2V8z"></path>
    <polyline points="14 2 14 8 20 8"></polyline>
    <line x1="8" y1="13" x2="16" y2="13"></line>
    <line x1="8" y1="17" x2="16" y2="17"></line>
  </symbol>
  
  <symbol id="icon-lightbulb" viewBox="0 0 24 24">
    <path d="M12 2a6 6 0 0 0-6 6c0 2 1 3.5 2.5 4.5C10 14 11 15.5 11 17v1a1 1 0 0 0 1 1h0a1 1 0 0 0 1-1v-1c0-1.5 1-3 2.5-4.5C17 11.5 18 10 18 8a6 6 0 0 0-6-6z"></path>
    <path d="M10 15v-1"></path>
    <path d="M14 15v-1"></path>
    <line x1="9" y1="20" x2="15" y2="20"></line>
  </symbol>
  
  <symbol id="icon-database" viewBox="0 0 24 24">
    <ellipse cx="12" cy="4" rx="9" ry="2.5"></ellipse>
    <path d="M3 4v4c0 1.1 4 2.5 9 2.5s9-1.4 9-2.5V4"></path>
    <path d="M3 8v4c0 1.1 4 2.5 9 2.5s9-1.4 9-2.5V8"></path>
    <path d="M3 12v4c0 1.1 4 2.5 9 2.5s9-1.4 9-2.5v-4"></path>
    <path d="M3 16v4c0 1.1 4 2.5 9 2.5s9-1.4 9-2.5v-4"></path>
  </symbol>
  
  <symbol id="icon-geometry" viewBox="0 0 24 24">
    <line x1="2" y1="12" x2="22" y2="12" stroke-width="2"></line>
    <circle cx="5" cy="12" r="3" fill="currentColor"></circle>
    <circle cx="12" cy="12" r="3" fill="currentColor"></circle>
    <circle cx="19" cy="12" r="3" fill="currentColor"></circle>
    <circle cx="8" cy="6" r="3" fill="currentColor"></circle>
    <circle cx="16" cy="18" r="3" fill="currentColor"></circle>
  </symbol>
  
  <symbol id="icon-github" viewBox="0 0 24 24">
    <path d="M9 19c-5 1.5-5-2.5-7-3m14 6v-3.87a3.37 3.37 0 0 0-.94-2.61c3.14-.35 6.44-1.54 6.44-7A5.44 5.44 0 0 0 20 4.77 5.07 5.07 0 0 0 19.91 1S18.73.65 16 2.48a13.38 13.38 0 0 0-7 0C6.27.65 5.09 1 5.09 1A5.07 5.07 0 0 0 5 4.77a5.44 5.44 0 0 0-1.5 3.78c0 5.42 3.3 6.61 6.44 7A3.37 3.37 0 0 0 9 18.13V22"></path>
  </symbol>
</svg>